# xmcd
#
# Track frame offsets:
#	150
#	12249
#	22770
#	41152
#	53934
#	65851
#	80295
#	108990
#	126852
#	143808
#
# Disc length: 2154 seconds
#
# Revision: 0
# Processed by: cddbd v1.5.2PL0 Copyright (c) Steve Scherf et al.
# Submitted via: EasyCDDAExtractor 16.0.5.1
#
DISCID=8308680a
DTITLE=Jimmy Cuarteto - Raices y sus
DYEAR=2015
DGENRE=Salsa
TTITLE0=Blue Bossa
TTITLE1=Cerezo Rosa
TTITLE2=Popurrit de ChaChaCha
TTITLE3=Moliendo Café
TTITLE4=Los paragüas de Cherburg
TTITLE5=Chica de Ipanema
TTITLE6=Popurrit de Cha Cha Cha
TTITLE7=Como fué
TTITLE8=Smoking
TTITLE9=Guantanamera
EXTD=
EXTT0=
EXTT1=
EXTT2=
EXTT3=
EXTT4=
EXTT5=
EXTT6=
EXTT7=
EXTT8=
EXTT9=
PLAYORDER=
